<svg width="34" height="34" viewBox="0 0 34 34" fill="none" xmlns="http://www.w3.org/2000/svg">
<path d="M32.1999 1.8C31.2461 0.894988 29.9814 0.390465 28.6666 0.390465C27.3517 0.390465 26.087 0.894988 25.1332 1.8L21.0999 5.81667C20.3746 6.55026 19.894 7.49023 19.7239 8.50772C19.5538 9.52522 19.7026 10.5704 20.1499 11.5L16.5666 15.0833L13.2332 11.75C12.6319 11.1342 11.8818 10.684 11.0555 10.4431C10.2292 10.2021 9.35467 10.1785 8.51659 10.3747C7.67851 10.5708 6.90524 10.9799 6.27164 11.5625C5.63803 12.145 5.16554 12.8813 4.8999 13.7L0.466566 27.0333C0.171947 27.9135 0.128154 28.8584 0.340092 29.762C0.55203 30.6657 1.01133 31.4926 1.66657 32.15C2.14189 32.6396 2.71242 33.0268 3.34301 33.2876C3.9736 33.5485 4.65091 33.6775 5.33323 33.6667C5.9002 33.6773 6.46454 33.587 6.9999 33.4L20.3332 28.9667C21.1519 28.701 21.8882 28.2285 22.4708 27.5949C23.0533 26.9613 23.4625 26.1881 23.6586 25.35C23.8547 24.5119 23.8311 23.6374 23.5902 22.8111C23.3492 21.9848 22.8991 21.2347 22.2832 20.6333L18.9499 17.3L22.5332 13.7167C23.4628 14.164 24.508 14.3128 25.5255 14.1427C26.543 13.9726 27.483 13.492 28.2166 12.7667L32.2332 8.73333C33.125 7.7975 33.6197 6.55264 33.6135 5.25995C33.6073 3.96726 33.1007 2.72722 32.1999 1.8ZM19.8332 23.05C20.0316 23.2521 20.1752 23.5014 20.2504 23.7743C20.3257 24.0473 20.3302 24.3349 20.2635 24.6101C20.1968 24.8853 20.0611 25.139 19.8692 25.3471C19.6772 25.5553 19.4354 25.7112 19.1666 25.8L5.86657 30.3333C5.57711 30.4218 5.26904 30.4297 4.97541 30.3563C4.68179 30.2829 4.41369 30.1309 4.1999 29.9167C3.98566 29.7029 3.83369 29.4348 3.76028 29.1412C3.68687 28.8475 3.69481 28.5395 3.78323 28.25L8.23323 14.9167C8.29667 14.6224 8.43864 14.3507 8.64406 14.1307C8.84947 13.9106 9.11067 13.7502 9.3999 13.6667C9.52731 13.6529 9.65583 13.6529 9.78323 13.6667C10.2205 13.6685 10.6395 13.8421 10.9499 14.15L14.2832 17.4833L12.8332 18.9167C12.677 19.0716 12.553 19.2559 12.4684 19.459C12.3838 19.6621 12.3402 19.88 12.3402 20.1C12.3402 20.32 12.3838 20.5379 12.4684 20.741C12.553 20.9441 12.677 21.1284 12.8332 21.2833C12.9882 21.4395 13.1725 21.5635 13.3756 21.6482C13.5787 21.7328 13.7965 21.7763 14.0166 21.7763C14.2366 21.7763 14.4544 21.7328 14.6575 21.6482C14.8606 21.5635 15.045 21.4395 15.1999 21.2833L16.6332 19.8333L19.8332 23.05ZM29.8332 6.51667L25.8166 10.5333C25.5826 10.7627 25.2862 10.918 24.9645 10.9798C24.6427 11.0417 24.3099 11.0073 24.0076 10.881C23.7053 10.7548 23.4468 10.5422 23.2647 10.2699C23.0825 9.99759 22.9846 9.67763 22.9832 9.35C22.9851 8.91277 23.1587 8.49377 23.4666 8.18333L27.4832 4.15C27.6382 3.99379 27.8225 3.8698 28.0256 3.78518C28.2287 3.70057 28.4465 3.657 28.6666 3.657C28.8866 3.657 29.1044 3.70057 29.3075 3.78518C29.5106 3.8698 29.695 3.99379 29.8499 4.15C30.0061 4.30494 30.1301 4.48927 30.2147 4.69237C30.2993 4.89547 30.3429 5.11331 30.3429 5.33333C30.3429 5.55335 30.2993 5.7712 30.2147 5.9743C30.1301 6.17739 30.0061 6.36173 29.8499 6.51667H29.8332Z" fill="#1A1A1A"/>
</svg>
