<svg width="38" height="30" viewBox="0 0 38 30" fill="none" xmlns="http://www.w3.org/2000/svg">
<path d="M32.3334 0.833336H5.66675C4.34067 0.833336 3.0689 1.36012 2.13121 2.2978C1.19353 3.23548 0.666748 4.50725 0.666748 5.83334V27.5C0.666748 27.942 0.842343 28.366 1.1549 28.6785C1.46746 28.9911 1.89139 29.1667 2.33341 29.1667H9.00008C9.27459 29.1653 9.5445 29.096 9.78583 28.9652C10.0272 28.8344 10.2324 28.6459 10.3834 28.4167L13.2334 24.1667H24.7667L27.6167 28.4167C27.7677 28.6459 27.973 28.8344 28.2143 28.9652C28.4557 29.096 28.7256 29.1653 29.0001 29.1667H35.6667C36.1088 29.1667 36.5327 28.9911 36.8453 28.6785C37.1578 28.366 37.3334 27.942 37.3334 27.5V5.83334C37.3334 4.50725 36.8066 3.23548 35.8689 2.2978C34.9313 1.36012 33.6595 0.833336 32.3334 0.833336ZM34.0001 25.8333H29.9001L27.0501 21.6667C26.909 21.4219 26.7081 21.217 26.4661 21.0713C26.2241 20.9255 25.9491 20.8436 25.6667 20.8333H12.3334C12.0589 20.8348 11.789 20.904 11.5477 21.0348C11.3063 21.1656 11.1011 21.3541 10.9501 21.5833L8.10008 25.8333H4.00008V17.5H34.0001V25.8333ZM10.6667 14.1667V12.5C10.6667 12.058 10.8423 11.6341 11.1549 11.3215C11.4675 11.0089 11.8914 10.8333 12.3334 10.8333H15.6667C16.1088 10.8333 16.5327 11.0089 16.8453 11.3215C17.1578 11.6341 17.3334 12.058 17.3334 12.5V14.1667H10.6667ZM20.6667 14.1667V12.5C20.6667 12.058 20.8423 11.6341 21.1549 11.3215C21.4675 11.0089 21.8914 10.8333 22.3334 10.8333H25.6667C26.1088 10.8333 26.5327 11.0089 26.8453 11.3215C27.1578 11.6341 27.3334 12.058 27.3334 12.5V14.1667H20.6667ZM34.0001 14.1667H30.6667V12.5C30.6667 11.1739 30.14 9.90215 29.2023 8.96447C28.2646 8.02679 26.9928 7.5 25.6667 7.5H22.3334C21.1 7.50735 19.9128 7.97035 19.0001 8.8C18.0874 7.97035 16.9002 7.50735 15.6667 7.5H12.3334C11.0073 7.5 9.73556 8.02679 8.79788 8.96447C7.8602 9.90215 7.33341 11.1739 7.33341 12.5V14.1667H4.00008V5.83334C4.00008 5.39131 4.17568 4.96739 4.48824 4.65482C4.8008 4.34226 5.22472 4.16667 5.66675 4.16667H32.3334C32.7754 4.16667 33.1994 4.34226 33.5119 4.65482C33.8245 4.96739 34.0001 5.39131 34.0001 5.83334V14.1667Z" fill="#1A1A1A"/>
</svg>
