<svg width="34" height="34" viewBox="0 0 34 34" fill="none" xmlns="http://www.w3.org/2000/svg">
<path d="M20.3334 10.3333H22C22.4421 10.3333 22.866 10.1577 23.1786 9.84518C23.4911 9.53262 23.6667 9.1087 23.6667 8.66667C23.6667 8.22464 23.4911 7.80072 23.1786 7.48816C22.866 7.1756 22.4421 7 22 7H20.3334C19.8913 7 19.4674 7.1756 19.1549 7.48816C18.8423 7.80072 18.6667 8.22464 18.6667 8.66667C18.6667 9.1087 18.8423 9.53262 19.1549 9.84518C19.4674 10.1577 19.8913 10.3333 20.3334 10.3333ZM20.3334 17H22C22.4421 17 22.866 16.8244 23.1786 16.5118C23.4911 16.1993 23.6667 15.7754 23.6667 15.3333C23.6667 14.8913 23.4911 14.4674 23.1786 14.1548C22.866 13.8423 22.4421 13.6667 22 13.6667H20.3334C19.8913 13.6667 19.4674 13.8423 19.1549 14.1548C18.8423 14.4674 18.6667 14.8913 18.6667 15.3333C18.6667 15.7754 18.8423 16.1993 19.1549 16.5118C19.4674 16.8244 19.8913 17 20.3334 17ZM12 10.3333H13.6667C14.1087 10.3333 14.5327 10.1577 14.8452 9.84518C15.1578 9.53262 15.3334 9.1087 15.3334 8.66667C15.3334 8.22464 15.1578 7.80072 14.8452 7.48816C14.5327 7.1756 14.1087 7 13.6667 7H12C11.558 7 11.1341 7.1756 10.8215 7.48816C10.509 7.80072 10.3334 8.22464 10.3334 8.66667C10.3334 9.1087 10.509 9.53262 10.8215 9.84518C11.1341 10.1577 11.558 10.3333 12 10.3333ZM12 17H13.6667C14.1087 17 14.5327 16.8244 14.8452 16.5118C15.1578 16.1993 15.3334 15.7754 15.3334 15.3333C15.3334 14.8913 15.1578 14.4674 14.8452 14.1548C14.5327 13.8423 14.1087 13.6667 13.6667 13.6667H12C11.558 13.6667 11.1341 13.8423 10.8215 14.1548C10.509 14.4674 10.3334 14.8913 10.3334 15.3333C10.3334 15.7754 10.509 16.1993 10.8215 16.5118C11.1341 16.8244 11.558 17 12 17ZM32 30.3333H30.3334V2C30.3334 1.55798 30.1578 1.13405 29.8452 0.821491C29.5327 0.508931 29.1087 0.333336 28.6667 0.333336H5.33337C4.89135 0.333336 4.46742 0.508931 4.15486 0.821491C3.8423 1.13405 3.66671 1.55798 3.66671 2V30.3333H2.00004C1.55801 30.3333 1.13409 30.5089 0.821529 30.8215C0.508969 31.1341 0.333374 31.558 0.333374 32C0.333374 32.442 0.508969 32.866 0.821529 33.1785C1.13409 33.4911 1.55801 33.6667 2.00004 33.6667H32C32.4421 33.6667 32.866 33.4911 33.1786 33.1785C33.4911 32.866 33.6667 32.442 33.6667 32C33.6667 31.558 33.4911 31.1341 33.1786 30.8215C32.866 30.5089 32.4421 30.3333 32 30.3333ZM18.6667 30.3333H15.3334V23.6667H18.6667V30.3333ZM27 30.3333H22V22C22 21.558 21.8244 21.1341 21.5119 20.8215C21.1993 20.5089 20.7754 20.3333 20.3334 20.3333H13.6667C13.2247 20.3333 12.8008 20.5089 12.4882 20.8215C12.1756 21.1341 12 21.558 12 22V30.3333H7.00004V3.66667H27V30.3333Z" fill="#1A1A1A"/>
</svg>
